<?xml version="1.0" standalone="no"?>
<!DOCTYPE svg PUBLIC "-//W3C//DTD SVG 20010904//EN"
 "http://www.w3.org/TR/2001/REC-SVG-20010904/DTD/svg10.dtd">
<svg version="1.0" xmlns="http://www.w3.org/2000/svg"
 width="384.000000pt" height="384.000000pt" viewBox="0 0 384.000000 384.000000"
 preserveAspectRatio="xMidYMid meet">
<metadata>
Created by potrace 1.14, written by Peter Selinger 2001-2017
</metadata>
<g transform="translate(0.000000,384.000000) scale(0.100000,-0.100000)"
fill="#000000" stroke="none">
<path d="M480 3384 c-17 -15 -40 -44 -50 -65 -19 -37 -20 -62 -20 -626 l1
-588 37 -55 c40 -58 44 -61 357 -242 72 -42 146 -85 165 -97 19 -11 42 -24 50
-28 14 -6 317 -183 350 -204 8 -5 22 -12 30 -16 8 -4 42 -23 75 -43 141 -86
416 -240 428 -240 7 0 21 6 32 13 11 8 45 27 75 44 30 16 145 81 255 145 110
63 220 126 245 140 46 26 253 145 548 315 92 53 183 104 202 114 40 20 79 58
109 109 21 34 21 44 21 628 l0 593 -26 44 c-44 75 -121 105 -185 71 -58 -30
-164 -89 -235 -131 -42 -25 -77 -45 -80 -45 -2 0 -38 -20 -80 -45 -41 -25 -77
-45 -80 -45 -2 0 -49 -27 -105 -60 -55 -33 -103 -60 -105 -60 -2 0 -84 -46
-181 -101 -329 -188 -358 -204 -385 -218 -33 -17 -21 -22 -216 92 -73 42 -135
77 -137 77 -2 0 -38 20 -78 45 -41 25 -80 45 -86 45 -6 0 -11 4 -11 9 0 5 -10
13 -22 17 -11 3 -54 26 -93 50 -40 24 -78 44 -84 44 -6 0 -11 4 -11 9 0 5 -9
13 -20 16 -12 4 -66 33 -121 66 -54 32 -101 59 -103 59 -3 0 -51 27 -108 61
-178 105 -230 129 -280 129 -36 0 -54 -6 -78 -26z"/>
<path d="M486 1529 c-72 -57 -96 -149 -55 -215 18 -29 88 -94 102 -94 3 0 49
-26 104 -58 54 -32 121 -71 148 -86 64 -36 340 -196 512 -298 73 -43 135 -78
138 -78 3 0 22 -11 43 -24 20 -12 123 -73 229 -134 l191 -111 44 24 c24 14 50
28 58 32 8 4 59 33 113 65 54 32 100 58 102 58 4 0 201 114 225 130 8 6 22 13
30 17 8 4 51 28 95 54 44 26 98 57 120 69 683 386 705 401 705 499 0 57 -43
132 -89 155 -62 33 -106 19 -294 -92 -48 -29 -90 -52 -92 -52 -3 0 -50 -27
-106 -60 -55 -33 -103 -60 -105 -60 -2 0 -38 -20 -80 -45 -41 -25 -78 -45 -81
-45 -3 0 -39 -20 -80 -45 -40 -25 -76 -45 -78 -45 -2 0 -46 -24 -97 -54 -226
-130 -379 -216 -387 -216 -7 0 -136 72 -441 247 -52 30 -102 58 -110 64 -8 5
-22 12 -30 16 -8 4 -48 26 -88 50 -40 24 -74 43 -76 43 -4 0 -197 111 -226
130 -8 6 -22 13 -30 17 -8 4 -51 28 -95 53 -155 91 -197 110 -246 110 -32 0
-55 -7 -73 -21z"/>
</g>
</svg>
